<?xml version="1.0" encoding="utf-8"?> <!-- Generator: IcoMoon.io --> <!DOCTYPE svg PUBLIC "-//W3C//DTD SVG 1.1//EN" "http://www.w3.org/Graphics/SVG/1.1/DTD/svg11.dtd"> <svg width="64" height="64" viewBox="0 0 64 64" xmlns="http://www.w3.org/2000/svg" xmlns:xlink="http://www.w3.org/1999/xlink" fill="#25ceff"><g><path d="M 16,40c-2.82,0-5.484-0.578-8-1.468L 8,64 l 8-8l 8,8L 24,38.532 C 21.484,39.422, 18.82,40, 16,40zM 16,0C 7.164,0,0,7.164,0,16s 7.164,16, 16,16s 16-7.164, 16-16S 24.836,0, 16,0z M 16,24c-4.422,0-8-3.582-8-8 s 3.578-8, 8-8s 8,3.582, 8,8S 20.422,24, 16,24z"></path></g></svg>