<?xml version="1.0" encoding="utf-8"?> <!-- Generator: IcoMoon.io --> <!DOCTYPE svg PUBLIC "-//W3C//DTD SVG 1.1//EN" "http://www.w3.org/Graphics/SVG/1.1/DTD/svg11.dtd"> <svg width="64" height="64" viewBox="0 0 64 64" xmlns="http://www.w3.org/2000/svg" xmlns:xlink="http://www.w3.org/1999/xlink" fill="#25ceff"><g><path d="M 32,4.034C 16.58,4.034, 4.034,16.579, 4.034,32c0,15.421, 12.546,27.966, 27.966,27.966 c 15.421,0, 27.966-12.546, 27.966-27.966C 59.966,16.579, 47.42,4.034, 32,4.034z M 32,57.661 c-14.15,0-25.661-11.512-25.661-25.661c0-14.15, 11.512-25.661, 25.661-25.661 c 14.15,0, 25.661,11.512, 25.661,25.661C 57.661,46.15, 46.15,57.661, 32,57.661zM 39.281,24.125A1.709,1.709 720 1 0 42.7,24.125A1.709,1.709 720 1 0 39.281,24.125zM 47.759,22.768c-1.034-3.262-4.090-5.634-7.69-5.634c-3.355,0-4.686,0.94-6.098,2.791 l-1.229,1.935L 25.432,33.037L 16.966,33.037 l-5.665,8.835l 8.352,0 l 2.131,0 l 8.515,0 l 2.886,4.466l 2.744,0 l-2.906-4.497 c 0.601-0.049, 1.176-0.121, 1.729-0.212l 3.043,4.709l 2.687,0 l-3.352-5.261c 8.178-2.531, 9.96-9.964, 10.256-11.602 l 6.661-3.724L 47.759,22.768z M 48.133,25.259L 49.484,25.919l-1.498,0.794C 48.076,26.241, 48.129,25.756, 48.133,25.259z M 15.517,39.568l 0.812-1.266l0,0.198 l 3.864,0 l 1.383-2.305l-3.896,0 l 0.547-0.853l 5.698,0 l-2.764,4.226L 15.517,39.568 z M 34.68,23.107 l 1.154-1.824c 0.983-1.282, 1.7-1.845, 4.235-1.845c 2.382,0, 4.432,1.454, 5.308,3.52l 0.281,0.866 c 0.109,0.442, 0.173,0.901, 0.173,1.376c0,0.546-0.081,1.074-0.224,1.575c-0.182,0.577-0.414,1.048-0.568,1.326 c-1.001,1.708-2.852,2.861-4.97,2.861c-0.498,0-1.009-0.070-1.519-0.21l-2.121-0.579l 0.73,2.073 c 0.146,0.417, 0.221,0.941, 0.221,1.558c0,2.717-1.892,4.995-4.426,5.6l 2.597-3.992l-2.729-0.033l-2.724,4.187l-1.811,0 l 6.14-9.436l-2.769,0.030l-6.12,9.405l-1.623,0 L 34.68,23.107z M 38.445,38.083 c 0.781-1.242, 1.24-2.705, 1.24-4.277c0-0.189-0.005-0.371-0.016-0.548c 1.644,0.082, 3.187-0.343, 4.498-1.122 C 43.271,34.111, 41.583,36.538, 38.445,38.083z"></path></g></svg>