<?xml version="1.0" encoding="utf-8"?> <!-- Generator: IcoMoon.io --> <!DOCTYPE svg PUBLIC "-//W3C//DTD SVG 1.1//EN" "http://www.w3.org/Graphics/SVG/1.1/DTD/svg11.dtd"> <svg width="64" height="64" viewBox="0 0 64 64" xmlns="http://www.w3.org/2000/svg" xmlns:xlink="http://www.w3.org/1999/xlink" fill="#25ceff"><g><path d="M 43.378,30.305C 42.553,24.731, 37.798,20.44, 32,20.44 c-5.798,0-10.552,4.291-11.378,9.864L 4.112,30.305 C 4.993,15.634, 17.123,4, 32,4 c 14.877,0, 27.008,11.634, 27.888,26.305L 43.378,30.305 z M 27.227,31.743c0-2.667, 2.16-4.829, 4.825-4.829 c 2.665,0, 4.825,2.162, 4.825,4.829c0,2.667-2.16,4.83-4.825,4.83C 29.387,36.572, 27.227,34.41, 27.227,31.743 M 32,43.56c 5.833,0, 10.606-4.344, 11.388-9.967l 16.505,0 C 59.063,48.311, 46.912,60, 32,60 c-14.912,0-27.063-11.689-27.893-26.407l 16.505,0 C 21.394,39.216, 26.167,43.56, 32,43.56"></path></g></svg>