<?xml version="1.0" encoding="utf-8"?> <!-- Generator: IcoMoon.io --> <!DOCTYPE svg PUBLIC "-//W3C//DTD SVG 1.1//EN" "http://www.w3.org/Graphics/SVG/1.1/DTD/svg11.dtd"> <svg width="64" height="64" viewBox="0 0 64 64" xmlns="http://www.w3.org/2000/svg" xmlns:xlink="http://www.w3.org/1999/xlink" fill="#25ceff"><g><path d="M 59.059,27.306c-3.064-5.601-11.655-4.297-14.219,1.065c-2.564-5.361-11.157-6.666-14.219-1.065 c-2.571,4.7, 1.090,11.913, 3.912,15.706c 2.541,3.427, 6.479,6.366, 10.306,8.225 c-4.53-3.853-3.357-7.412-0.278-7.453C 58.814,43.995, 61.624,32.006, 59.059,27.306zM 27.642,25.678c 1.845-3.377, 5.348-5.39, 9.368-5.39c 2.659,0, 5.223,0.907, 7.288,2.416 c 0.025-1.824-0.314-3.566-1.153-5.103c-4.082-7.469-15.546-5.736-18.963,1.417 c-3.411-7.154-14.873-8.886-18.956-1.417c-3.427,6.259, 0.327,22.248, 19.325,21.971 c 4.112,0.053, 5.673,4.801-0.369,9.935c 2.539-1.232, 5.112-2.822, 7.478-4.671 C 29.992,42.552, 23.633,33.008, 27.642,25.678z"></path></g></svg>