<?xml version="1.0" encoding="utf-8"?> <!-- Generator: IcoMoon.io --> <!DOCTYPE svg PUBLIC "-//W3C//DTD SVG 1.1//EN" "http://www.w3.org/Graphics/SVG/1.1/DTD/svg11.dtd"> <svg width="64" height="64" viewBox="0 0 64 64" xmlns="http://www.w3.org/2000/svg" xmlns:xlink="http://www.w3.org/1999/xlink" fill="#25ceff"><g><path d="M 62,24L 40,24 L 40,2 c0-1.105-0.895-2-2-2l-12,0 c-1.105,0-2,0.895-2,2l0,22 L 2,24 c-1.105,0-2,0.895-2,2l0,12 c0,1.105, 0.895,2, 2,2l 22,0 l0,22 c0,1.105, 0.895,2, 2,2l 12,0 c 1.105,0, 2-0.895, 2-2L 40,40 l 22,0 c 1.105,0, 2-0.895, 2-2l0-12 C 64,24.895, 63.105,24, 62,24z"></path></g></svg>