<?xml version="1.0" encoding="utf-8"?>
<!-- Generator: IcoMoon.io  -->
<!DOCTYPE svg PUBLIC "-//W3C//DTD SVG 1.1//EN" "http://www.w3.org/Graphics/SVG/1.1/DTD/svg11.dtd">
<svg width="832" height="64" viewBox="0 0 832 64" data-tags="pavitra-s-tandon-chat-for-lovers" style="margin-left: -16px; margin-top: -16px;" xmlns="http://www.w3.org/2000/svg" fill="#fd4e01"><path d="M 472.476,218.45c-24.514-44.807-93.24-34.374-113.749,8.517c-20.512-42.891-89.254-53.325-113.75-8.517
		c-20.567,37.597, 8.719,95.305, 31.298,125.647c 20.33,27.417, 51.836,50.928, 82.451,65.797
		c-36.24-30.821-26.858-59.297-2.22-59.623C 470.512,351.959, 492.995,256.047, 472.476,218.45zM 221.136,205.422c 14.761-27.015, 42.786-43.118, 74.948-43.118c 21.269,0, 41.781,7.258, 58.307,19.329
		c 0.198-14.591-2.515-28.527-9.222-40.825c-32.655-59.749-124.366-45.889-151.708,11.34
		c-27.285-57.229-118.987-71.090-151.651-11.34c-27.418,50.072, 2.618,177.987, 154.601,175.769
		c 32.892,0.428, 45.387,38.406-2.95,79.481c 20.312-9.854, 40.898-22.579, 59.824-37.372
		C 239.939,340.418, 189.060,264.062, 221.136,205.422z" transform="scale(0.125 0.125)"></path><path d="M 176.284,50.144c0,5.228-3.29,6.869-7.346,3.661l-9.129-7.346L 150.677,46.459 
			c-10.231,0-18.588-8.485-18.588-18.952c0-10.447, 8.322-18.952, 18.588-18.952l 18.646,0 
			c 10.233,0, 18.59,8.485, 18.59,18.952c0,7.94-4.811,14.763-11.628,17.576L 176.284,50.144 z"></path><path d="M 288,4.034C 272.58,4.034, 260.034,16.579, 260.034,32c0,15.421, 12.546,27.966, 27.966,27.966
		c 15.421,0, 27.966-12.546, 27.966-27.966C 315.966,16.579, 303.42,4.034, 288,4.034z M 288,57.661
		c-14.15,0-25.661-11.512-25.661-25.661c0-14.15, 11.512-25.661, 25.661-25.661
		c 14.15,0, 25.661,11.512, 25.661,25.661C 313.661,46.15, 302.15,57.661, 288,57.661zM 295.281,24.125A1.709,1.709 720 1 0 298.7,24.125A1.709,1.709 720 1 0 295.281,24.125zM 303.759,22.768c-1.034-3.262-4.090-5.634-7.69-5.634c-3.355,0-4.686,0.94-6.098,2.791
		l-1.229,1.935L 281.432,33.037L 272.966,33.037 l-5.665,8.835l 8.352,0 l 2.131,0 l 8.515,0 l 2.886,4.466l 2.744,0 l-2.906-4.497
		c 0.601-0.049, 1.176-0.121, 1.729-0.212l 3.043,4.709l 2.687,0 l-3.352-5.261c 8.178-2.531, 9.96-9.964, 10.256-11.602
		l 6.661-3.724L 303.759,22.768z M 304.133,25.259L 305.484,25.919l-1.498,0.794C 304.076,26.241, 304.129,25.756, 304.133,25.259z
		 M 271.517,39.568l 0.812-1.266l0,0.198 l 3.864,0 l 1.383-2.305l-3.896,0 l 0.547-0.853l 5.698,0 l-2.764,4.226L 271.517,39.568 z M 290.68,23.107
		l 1.154-1.824c 0.983-1.282, 1.7-1.845, 4.235-1.845c 2.382,0, 4.432,1.454, 5.308,3.52l 0.281,0.866
		c 0.109,0.442, 0.173,0.901, 0.173,1.376c0,0.546-0.081,1.074-0.224,1.575c-0.182,0.577-0.414,1.048-0.568,1.326
		c-1.001,1.708-2.852,2.861-4.97,2.861c-0.498,0-1.009-0.070-1.519-0.21l-2.121-0.579l 0.73,2.073
		c 0.146,0.417, 0.221,0.941, 0.221,1.558c0,2.717-1.892,4.995-4.426,5.6l 2.597-3.992l-2.729-0.033l-2.724,4.187l-1.811,0 
		l 6.14-9.436l-2.769,0.030l-6.12,9.405l-1.623,0 L 290.68,23.107z M 294.445,38.083
		c 0.781-1.242, 1.24-2.705, 1.24-4.277c0-0.189-0.005-0.371-0.016-0.548c 1.644,0.082, 3.187-0.343, 4.498-1.122
		C 299.271,34.111, 297.583,36.538, 294.445,38.083z"></path><path d="M 427.378,30.305C 426.553,24.731, 421.798,20.44, 416,20.44
		c-5.798,0-10.552,4.291-11.378,9.864L 388.112,30.305 C 388.993,15.634, 401.123,4, 416,4
		c 14.877,0, 27.008,11.634, 27.888,26.305L 427.378,30.305 z M 411.227,31.743c0-2.667, 2.16-4.829, 4.825-4.829
		c 2.665,0, 4.825,2.162, 4.825,4.829c0,2.667-2.16,4.83-4.825,4.83C 413.387,36.572, 411.227,34.41, 411.227,31.743
		 M 416,43.56c 5.833,0, 10.606-4.344, 11.388-9.967l 16.505,0 C 443.063,48.311, 430.912,60, 416,60
		c-14.912,0-27.063-11.689-27.893-26.407l 16.505,0 C 405.394,39.216, 410.167,43.56, 416,43.56"></path><path d="M 566,0 C 571.523,0 576,4.477 576,10 C 576,12.251 575.256,14.329 574,16 L 570,20 L 556,6 L 560,2 C 561.671,0.744 563.749,0 566,0 ZM 516,46L 512,64l 18-4l 37-37L 553,9L 516,46z M 556.724,22.724l-28,28l-3.447-3.447l 28-28L 556.724,22.724z"></path><path d="M 702,24L 680,24 L 680,2 c0-1.105-0.895-2-2-2l-12,0 c-1.105,0-2,0.895-2,2l0,22 L 642,24 c-1.105,0-2,0.895-2,2l0,12 
	c0,1.105, 0.895,2, 2,2l 22,0 l0,22 c0,1.105, 0.895,2, 2,2l 12,0 c 1.105,0, 2-0.895, 2-2L 680,40 l 22,0 c 1.105,0, 2-0.895, 2-2l0-12 
	C 704,24.895, 703.105,24, 702,24z"></path><path d="M 784,40c-2.82,0-5.484-0.578-8-1.468L 776,64 l 8-8l 8,8L 792,38.532 C 789.484,39.422, 786.82,40, 784,40zM 784,0C 775.164,0, 768,7.164, 768,16s 7.164,16, 16,16s 16-7.164, 16-16S 792.836,0, 784,0z M 784,24c-4.422,0-8-3.582-8-8
			s 3.578-8, 8-8s 8,3.582, 8,8S 788.422,24, 784,24z"></path></svg>